#N canvas 332 23 1361 1075 10;
#X obj 379 204 * 1, f 6;
#X obj 329 226 * 1, f 8;
#X obj 329 204 != 0;
#X msg 524 396 clear;
#X msg 342 390 dump;
#X msg 295 293 0;
#X obj 306 316 + 1;
#X obj 280 316 f 0;
#X obj 280 203 t b f;
#X obj 311 338 pack 0 0 0 0;
#X obj 457 520 list prepend;
#X obj 457 542 list split 3;
#X obj 375 250 r \$0-reset;
#X obj 491 563 -, f 21;
#X obj 491 584 abs;
#X obj 520 626 t f f;
#X obj 457 667 list prepend, f 15;
#X obj 435 296 timer, f 7;
#X obj 457 647 list append;
#X obj 341 557 list split 1;
#X msg 341 580 remove \$1;
#X obj 380 313 timer;
#X obj 520 606 +, f 8;
#X obj 457 688 route 1 0;
#X obj 516 731 unpack f f f, f 47;
#X msg 425 356 const 0;
#X floatatom 795 776 5 0 0 0 - - -;
#X obj 516 813 + 0.1;
#X msg 326 415 normalize;
#X obj 516 834 tabwrite \$0-profile, f 20;
#X obj 516 793 tabread \$0-profile;
#X obj 326 437 s \$0-profile;
#X obj 425 378 s \$0-profile;
#X obj 357 275 t f b b b, f 20;
#X obj 482 710 list split 1;
#X obj 311 361 t b b b l b;
#X obj 311 458 s \$0-estimate;
#X obj 12 9 inlet;
#X obj 1074 42 r \$0-estimate;
#X obj 1060 184 bang;
#X obj 1060 205 t b b;
#X obj 1074 65 t b b b b, f 25;
#X obj 947 333 tgl 15 0 empty empty empty 17 7 0 10 -262144 -1 -1 0
1;
#X obj 947 354 sel 0;
#X obj 1008 704 outlet;
#N canvas 0 50 450 278 (subpatch) 0;
#X array \$0-profile 12 float 0;
#X coords 0 1 11 0 200 140 1 0 0;
#X restore 989 768 graph;
#N canvas 629 302 445 364 midi-voices 1;
#X obj 34 267 outlet;
#X obj 86 267 outlet;
#X obj 139 267 outlet;
#X obj 34 97 pack 0 0 0;
#X obj 34 53 mod 12;
#X text 110 70 no voice stealing:;
#X text 110 80 longer voices are more important.;
#X obj 34 246 unpack 0 0 0, f 18;
#X obj 34 75 poly 5 0, f 10;
#X obj 34 118 route 1 2 3 4 5;
#X text 139 117 5 voices...;
#X obj 34 32 unpack, f 10;
#X obj 34 10 inlet;
#N canvas 0 23 450 300 midi-note-duration 0;
#X obj 51 49 unpack;
#X obj 123 168 timer;
#X obj 36 163 f;
#X obj 123 122 t b b;
#X obj 84 70 sel 0;
#X obj 51 27 inlet;
#X obj 36 211 outlet;
#X obj 36 189 pack 0 0 0, f 15;
#X obj 58 121 t f b;
#X connect 0 0 2 1;
#X connect 0 1 4 0;
#X connect 1 0 7 2;
#X connect 2 0 7 0;
#X connect 3 0 2 0;
#X connect 3 1 1 1;
#X connect 4 0 3 0;
#X connect 4 1 7 1;
#X connect 4 1 8 0;
#X connect 5 0 0 0;
#X connect 7 0 6 0;
#X connect 8 0 7 1;
#X connect 8 1 1 0;
#X restore 34 139 pd midi-note-duration;
#N canvas 0 23 450 300 midi-note-duration 0;
#X obj 51 49 unpack;
#X obj 123 168 timer;
#X obj 36 163 f;
#X obj 123 122 t b b;
#X obj 84 70 sel 0;
#X obj 51 27 inlet;
#X obj 36 211 outlet;
#X obj 36 189 pack 0 0 0, f 15;
#X obj 58 121 t f b;
#X connect 0 0 2 1;
#X connect 0 1 4 0;
#X connect 1 0 7 2;
#X connect 2 0 7 0;
#X connect 3 0 2 0;
#X connect 3 1 1 1;
#X connect 4 0 3 0;
#X connect 4 1 7 1;
#X connect 4 1 8 0;
#X connect 5 0 0 0;
#X connect 7 0 6 0;
#X connect 8 0 7 1;
#X connect 8 1 1 0;
#X restore 51 159 pd midi-note-duration;
#N canvas 0 23 450 300 midi-note-duration 0;
#X obj 51 49 unpack;
#X obj 123 168 timer;
#X obj 36 163 f;
#X obj 123 122 t b b;
#X obj 84 70 sel 0;
#X obj 51 27 inlet;
#X obj 36 211 outlet;
#X obj 36 189 pack 0 0 0, f 15;
#X obj 58 121 t f b;
#X connect 0 0 2 1;
#X connect 0 1 4 0;
#X connect 1 0 7 2;
#X connect 2 0 7 0;
#X connect 3 0 2 0;
#X connect 3 1 1 1;
#X connect 4 0 3 0;
#X connect 4 1 7 1;
#X connect 4 1 8 0;
#X connect 5 0 0 0;
#X connect 7 0 6 0;
#X connect 8 0 7 1;
#X connect 8 1 1 0;
#X restore 68 179 pd midi-note-duration;
#N canvas 0 23 450 300 midi-note-duration 0;
#X obj 51 49 unpack;
#X obj 123 168 timer;
#X obj 36 163 f;
#X obj 123 122 t b b;
#X obj 84 70 sel 0;
#X obj 51 27 inlet;
#X obj 36 211 outlet;
#X obj 36 189 pack 0 0 0, f 15;
#X obj 58 121 t f b;
#X connect 0 0 2 1;
#X connect 0 1 4 0;
#X connect 1 0 7 2;
#X connect 2 0 7 0;
#X connect 3 0 2 0;
#X connect 3 1 1 1;
#X connect 4 0 3 0;
#X connect 4 1 7 1;
#X connect 4 1 8 0;
#X connect 5 0 0 0;
#X connect 7 0 6 0;
#X connect 8 0 7 1;
#X connect 8 1 1 0;
#X restore 86 199 pd midi-note-duration;
#N canvas 0 23 450 300 midi-note-duration 0;
#X obj 51 49 unpack;
#X obj 123 168 timer;
#X obj 36 163 f;
#X obj 123 122 t b b;
#X obj 84 70 sel 0;
#X obj 51 27 inlet;
#X obj 36 211 outlet;
#X obj 36 189 pack 0 0 0, f 15;
#X obj 58 121 t f b;
#X connect 0 0 2 1;
#X connect 0 1 4 0;
#X connect 1 0 7 2;
#X connect 2 0 7 0;
#X connect 3 0 2 0;
#X connect 3 1 1 1;
#X connect 4 0 3 0;
#X connect 4 1 7 1;
#X connect 4 1 8 0;
#X connect 5 0 0 0;
#X connect 7 0 6 0;
#X connect 8 0 7 1;
#X connect 8 1 1 0;
#X restore 103 219 pd midi-note-duration;
#X connect 3 0 9 0;
#X connect 4 0 8 0;
#X connect 7 0 0 0;
#X connect 7 1 1 0;
#X connect 7 2 2 0;
#X connect 8 0 3 0;
#X connect 8 1 3 1;
#X connect 8 2 3 2;
#X connect 9 0 13 0;
#X connect 9 1 14 0;
#X connect 9 2 15 0;
#X connect 9 3 16 0;
#X connect 9 4 17 0;
#X connect 11 0 4 0;
#X connect 11 1 8 1;
#X connect 12 0 11 0;
#X connect 13 0 7 0;
#X connect 14 0 7 0;
#X connect 15 0 7 0;
#X connect 16 0 7 0;
#X connect 17 0 7 0;
#X restore 280 158 pd midi-voices;
#X f 17;
#X obj 56 114 s \$0-reset;
#X obj 1008 657 t f f, f 13;
#X obj 1083 704 outlet;
#X obj 124 210 s \$0-velw;
#X obj 96 231 s \$0-durw;
#X obj 68 252 s \$0-timew;
#X obj 350 184 r \$0-velw;
#X obj 412 184 r \$0-durw;
#X obj 627 544 r \$0-timelenght;
#X obj 40 273 s \$0-timelenght;
#X obj 547 646 > \$2;
#X obj 795 755 / \$2;
#X msg 1087 250 \$1-minor;
#X msg 1172 249 \$1-major;
#X obj 1172 226 symbol \$1;
#X obj 1087 227 symbol \$1;
#X obj 1243 66 r \$0-model;
#X obj 13 296 s \$0-model;
#X obj 477 428 cyclone/coll;
#C restore;
#X obj 13 30 list prepend;
#N canvas 242 183 763 371 int2key 0;
#X obj 16 13 inlet;
#X obj 16 35 select 0 1 2 3 4 5 6 7 8 9 10 11 12 13 14 15 16 17 18
19 20 21 22 23, f 120;
#X msg 16 78 C;
#X msg 46 78 Db;
#X msg 76 78 D;
#X msg 106 78 Eb;
#X msg 136 78 E;
#X msg 166 78 F;
#X msg 196 78 F#;
#X msg 226 78 G;
#X msg 256 78 Ab;
#X msg 286 78 A;
#X msg 316 78 Bb;
#X msg 346 78 B;
#X msg 376 78 Cm;
#X msg 406 78 Dbm;
#X msg 436 78 Dm;
#X msg 466 78 Ebm;
#X msg 496 78 Em;
#X msg 525 77 Fm;
#X msg 556 78 F#m;
#X msg 586 78 Gm;
#X msg 616 78 Abm;
#X msg 646 78 Am;
#X msg 676 78 Bbm;
#X msg 705 77 Bm;
#X obj 16 203 outlet;
#X connect 0 0 1 0;
#X connect 1 0 2 0;
#X connect 1 1 3 0;
#X connect 1 2 4 0;
#X connect 1 3 5 0;
#X connect 1 4 6 0;
#X connect 1 5 7 0;
#X connect 1 6 8 0;
#X connect 1 7 9 0;
#X connect 1 8 10 0;
#X connect 1 9 11 0;
#X connect 1 10 12 0;
#X connect 1 11 13 0;
#X connect 1 12 14 0;
#X connect 1 13 15 0;
#X connect 1 14 16 0;
#X connect 1 15 17 0;
#X connect 1 16 18 0;
#X connect 1 17 19 0;
#X connect 1 18 20 0;
#X connect 1 19 21 0;
#X connect 1 20 22 0;
#X connect 1 21 23 0;
#X connect 1 22 24 0;
#X connect 1 23 25 0;
#X connect 2 0 26 0;
#X connect 3 0 26 0;
#X connect 4 0 26 0;
#X connect 5 0 26 0;
#X connect 6 0 26 0;
#X connect 7 0 26 0;
#X connect 8 0 26 0;
#X connect 9 0 26 0;
#X connect 10 0 26 0;
#X connect 11 0 26 0;
#X connect 12 0 26 0;
#X connect 13 0 26 0;
#X connect 14 0 26 0;
#X connect 15 0 26 0;
#X connect 16 0 26 0;
#X connect 17 0 26 0;
#X connect 18 0 26 0;
#X connect 19 0 26 0;
#X connect 20 0 26 0;
#X connect 21 0 26 0;
#X connect 22 0 26 0;
#X connect 23 0 26 0;
#X connect 24 0 26 0;
#X connect 25 0 26 0;
#X restore 1008 681 pd int2key;
#X obj 152 189 s \$0-output;
#X obj 180 169 s \$0-refresh;
#X obj 99 95 s \$0-keynow;
#X text 192 209 N.I.;
#X obj 1043 458 r \$0-output;
#X text 634 749 duration (ms);
#X obj 998 532 swap 0 1;
#X obj 998 556 pack 1 0;
#X text 651 800 We could use these two outlets to weight the profiles
acording to duration and short-term memory!!, f 32;
#X text 478 180 we could apply different weights to velocity and/or
duration!, f 33;
#X obj 1043 510 > 0;
#X obj 977 634 f, f 4;
#X obj 998 576 route 1 0;
#X obj 1083 564 metro 500;
#X obj 1114 520 r \$0-refresh;
#X obj 1083 520 == 1;
#X obj 967 510 r \$0-keynow;
#X text 156 232 N.I.;
#X text 138 252 N.I.;
#X obj 13 52 route list bang symbol;
#X obj 99 72 sel estimate;
#X obj 13 133 route profile timelenght timew durw velw output refresh
, f 33;
#X obj 1114 540 t b f;
#X obj 1117 478 f \$3;
#X obj 1117 458 loadbang;
#X obj 627 585 sel 0;
#X msg 627 627 6e+13;
#X obj 816 668 r \$0-timelenght;
#X obj 816 707 sel 0;
#X msg 816 730 6e+13;
#X obj 627 564 abs;
#X obj 816 688 abs;
#X text 990 914 C;
#X text 1006 914 C#;
#X text 1026 914 D;
#X text 1041 914 D#;
#X text 1060 914 E;
#X text 1076 913 F;
#X text 1091 913 F#;
#X text 1177 914 B;
#X text 1157 914 A#;
#X text 1142 914 A;
#X text 1122 914 G#;
#X text 1108 914 G;
#N canvas 564 219 512 499 euclidist 0;
#X obj 36 146 list split 1;
#X obj 36 76 until;
#X obj 36 127 list append;
#X obj 106 59 bang;
#X obj 117 146 list split 1;
#X obj 117 127 list append;
#X obj 36 96 t b b;
#X text 16 8 lista A;
#X text 198 26 Lista B;
#X obj 36 182 -;
#X obj 36 225 pow 2;
#X obj 36 204 abs;
#X obj 36 252 +;
#X obj 87 235 f;
#X obj 36 277 t f f;
#X obj 19 300 f;
#X obj 19 321 sqrt;
#X msg 72 188 0;
#X obj 19 28 inlet;
#X obj 201 44 inlet;
#X obj 19 341 outlet;
#X obj 180 92 list;
#X obj 19 52 t b b l b b;
#X floatatom 140 191 5 0 0 0 - - -;
#X connect 0 0 9 0;
#X connect 0 1 2 1;
#X connect 0 2 3 0;
#X connect 1 0 6 0;
#X connect 2 0 0 0;
#X connect 3 0 1 1;
#X connect 4 0 9 1;
#X connect 4 0 23 0;
#X connect 4 1 5 1;
#X connect 5 0 4 0;
#X connect 6 0 2 0;
#X connect 6 1 5 0;
#X connect 9 0 11 0;
#X connect 10 0 12 0;
#X connect 11 0 10 0;
#X connect 12 0 14 0;
#X connect 13 0 12 1;
#X connect 14 0 15 1;
#X connect 14 1 13 0;
#X connect 15 0 16 0;
#X connect 16 0 20 0;
#X connect 17 0 13 0;
#X connect 18 0 22 0;
#X connect 19 0 21 1;
#X connect 21 0 5 1;
#X connect 22 0 15 0;
#X connect 22 1 1 0;
#X connect 22 2 2 1;
#X connect 22 3 17 0;
#X connect 22 4 21 0;
#X restore 1017 299 pd euclidist;
#N canvas 198 90 450 300 list-autorotate 0;
#X obj 15 7 inlet;
#X obj 78 273 outlet;
#X obj 15 142 list;
#X obj 68 134 list split 1;
#X obj 68 169 list prepend;
#X obj 15 30 t l l b;
#X obj 15 70 list length;
#X obj 15 120 until;
#X obj 125 251 sel;
#X obj 45 212 + 1;
#X obj 15 169 t b l l;
#X obj 15 91 t f f;
#X obj 15 212 f 1;
#X obj 125 273 outlet;
#X msg 89 71 1;
#X connect 0 0 5 0;
#X connect 2 0 10 0;
#X connect 3 0 4 0;
#X connect 3 1 4 1;
#X connect 4 0 2 1;
#X connect 5 0 6 0;
#X connect 5 1 2 1;
#X connect 5 2 4 1;
#X connect 5 2 14 0;
#X connect 6 0 11 0;
#X connect 7 0 2 0;
#X connect 8 0 13 0;
#X connect 9 0 12 1;
#X connect 10 0 12 0;
#X connect 10 1 3 0;
#X connect 10 2 1 0;
#X connect 11 0 7 0;
#X connect 11 1 8 1;
#X connect 12 0 9 0;
#X connect 12 0 8 0;
#X connect 14 0 12 1;
#X restore 928 141 pd list-autorotate;
#N canvas 0 23 450 300 once 0;
#X obj 34 59 inlet;
#X obj 91 103 t a b;
#X obj 136 137 f 1;
#X obj 91 201 t a b;
#X obj 91 244 outlet;
#X obj 207 56 inlet;
#X obj 34 80 route bang;
#X obj 34 110 t b b;
#X obj 34 202 t b b;
#X obj 207 79 t b;
#X msg 207 102 1;
#X msg 151 235 0;
#X obj 91 174 spigot 1;
#X obj 34 170 spigot 1;
#X connect 0 0 6 0;
#X connect 1 0 12 0;
#X connect 1 1 2 0;
#X connect 2 0 12 1;
#X connect 2 0 13 1;
#X connect 3 0 4 0;
#X connect 3 1 11 0;
#X connect 5 0 9 0;
#X connect 6 0 7 0;
#X connect 6 1 1 0;
#X connect 7 0 13 0;
#X connect 7 1 2 0;
#X connect 8 0 4 0;
#X connect 8 1 11 0;
#X connect 9 0 10 0;
#X connect 10 0 2 1;
#X connect 11 0 2 1;
#X connect 12 0 3 0;
#X connect 13 0 8 0;
#X restore 1060 165 pd once;
#N canvas 0 23 450 300 list-add 0;
#X obj 143 112 t l;
#X obj 74 135 outlet;
#X obj 11 23 inlet;
#X obj 198 32 inlet;
#X obj 11 43 route clear;
#X obj 74 88 list prepend;
#X connect 0 0 5 1;
#X connect 2 0 4 0;
#X connect 3 0 5 1;
#X connect 4 0 5 1;
#X connect 4 1 5 0;
#X connect 5 0 0 0;
#X connect 5 0 1 0;
#X restore 1017 322 pd list-add;
#X f 40;
#X obj 1243 88 symbol;
#N canvas 208 553 1395 630 key-profiles 0;
#X msg 343 107 undefined profile!;
#X obj 16 18 inlet;
#X obj 326 478 outlet;
#X obj 16 40 symbol;
#X obj 16 64 select krumhansl-major krumhansl-minor temperley-major
temperley-mimor diatonic-major diatonic-minor wtk-major wtk-minor edma-major
edma-minor;
#X msg 310 130 0.172353 0.0533649 0.0761009 0.100436 0.056215 0.0852785
0.0497915 0.13451 0.0745892 0.0500302 0.0918788 0.0554511, f 117;
#X msg 277 162 0.165196 0.0474903 0.0829308 0.0668711 0.0999464 0.0927412
0.0529449 0.131595 0.0521899 0.0744365 0.0694072 0.0642515, f 122
;
#X msg 244 193 0.0682 0.0138 0.0543 0.0519 0.0234 0.0544 0.0176 0.067
0.0349 0.0297 0.0401 0.027, f 128;
#X msg 212 223 0.0629 0.0146 0.061 0.0121 0.0623 0.0414 0.0248 0.0631
0.015 0.0521 0.0142 0.0478, f 98;
#X msg 179 251 1 0 1 1 0 1 0 1 1 0 0 1;
#X msg 146 273 1 0 1 0 1 1 0 1 0 1 0 1;
#X msg 114 295 0.712 0.084 0.474 0.618 0.049 0.46 0.105 0.747 0.404
0.067 0.133 0.33, f 73;
#X msg 81 320 0.748 0.06 0.488 0.082 0.67 0.46 0.096 0.715 0.104 0.366
0.057 0.4, f 69;
#X msg 48 345 1 0.423381 0.556082 0.849921 0.410742 0.557662 0.401264
0.750395 0.628752 0.424961 0.527646 0.50079, f 102;
#X msg 16 368 1 0.351181 0.548032 0.366929 0.689764 0.644095 0.39685
0.817323 0.376378 0.576378 0.36063 0.453543, f 109;
#X connect 0 0 2 0;
#X connect 1 0 3 0;
#X connect 3 0 4 0;
#X connect 4 0 14 0;
#X connect 4 1 13 0;
#X connect 4 2 12 0;
#X connect 4 3 11 0;
#X connect 4 4 10 0;
#X connect 4 5 9 0;
#X connect 4 6 8 0;
#X connect 4 7 7 0;
#X connect 4 8 6 0;
#X connect 4 9 5 0;
#X connect 4 10 0 0;
#X connect 5 0 2 0;
#X connect 6 0 2 0;
#X connect 7 0 2 0;
#X connect 8 0 2 0;
#X connect 9 0 2 0;
#X connect 10 0 2 0;
#X connect 11 0 2 0;
#X connect 12 0 2 0;
#X connect 13 0 2 0;
#X connect 14 0 2 0;
#X restore 1087 279 pd key-profiles;
#X obj 928 119 array get \$0-profile;
#X obj 1017 363 list length;
#X obj 1107 343 array define \$0-sort 24;
#X obj 1017 342 t l l, f 13;
#X obj 1071 411 list;
#X obj 1017 384 sel 24;
#X obj 1071 433 array set \$0-sort;
#X obj 947 375 array min \$0-sort, f 9;
#X obj 516 772 t f f, f 20;
#X text 576 395 si reduzco los parámetros seguro que se puede hacer
mucho más sencillo y vanillizar directamente! además \, si eliminamos
el parámetro de la duracion \, automáticamente será más rápido!!!!
, f 39;
#X obj 187 377 print lisl;
#X obj 524 375 r \$0-reset;
#X text 592 294 id pitchclass duration totalelapsedtime;
#X obj 37 37;
#X text 396 158 [pitclass velocity duration];
#X floatatom 498 240 5 0 0 0 - - -;
#X connect 0 0 1 1;
#X connect 1 0 33 0;
#X connect 2 0 1 0;
#X connect 3 0 65 0;
#X connect 4 0 65 0;
#X connect 5 0 7 1;
#X connect 6 0 7 1;
#X connect 7 0 6 0;
#X connect 7 0 9 0;
#X connect 8 0 7 0;
#X connect 8 1 9 1;
#X connect 9 0 35 0;
#X connect 9 0 128 0;
#X connect 10 0 11 0;
#X connect 11 0 18 0;
#X connect 11 1 13 0;
#X connect 12 0 5 0;
#X connect 12 0 21 0;
#X connect 13 0 14 0;
#X connect 14 0 22 0;
#X connect 15 0 18 1;
#X connect 15 1 57 0;
#X connect 16 0 23 0;
#X connect 17 0 22 1;
#X connect 18 0 16 0;
#X connect 19 0 20 0;
#X connect 20 0 65 0;
#X connect 21 0 9 3;
#X connect 21 0 13 1;
#X connect 22 0 15 0;
#X connect 23 0 19 0;
#X connect 23 1 34 0;
#X connect 24 0 126 0;
#X connect 24 2 58 0;
#X connect 25 0 32 0;
#X connect 27 0 29 0;
#X connect 28 0 31 0;
#X connect 30 0 27 0;
#X connect 33 0 9 2;
#X connect 33 0 133 0;
#X connect 33 1 21 1;
#X connect 33 2 17 0;
#X connect 33 3 17 1;
#X connect 34 1 24 0;
#X connect 35 0 36 0;
#X connect 35 1 28 0;
#X connect 35 2 4 0;
#X connect 35 3 65 0;
#X connect 35 4 25 0;
#X connect 37 0 66 0;
#X connect 38 0 41 0;
#X connect 39 0 40 0;
#X connect 40 0 118 0;
#X connect 40 1 62 0;
#X connect 41 0 118 0;
#X connect 41 1 114 1;
#X connect 41 2 61 0;
#X connect 41 3 115 1;
#X connect 42 0 43 0;
#X connect 43 0 125 0;
#X connect 46 0 8 0;
#X connect 46 1 2 0;
#X connect 46 2 0 0;
#X connect 48 0 67 0;
#X connect 48 1 49 0;
#X connect 53 0 2 1;
#X connect 54 0 0 1;
#X connect 55 0 98 0;
#X connect 57 0 16 1;
#X connect 58 0 26 0;
#X connect 59 0 117 0;
#X connect 60 0 117 0;
#X connect 61 0 60 0;
#X connect 62 0 59 0;
#X connect 63 0 116 0;
#X connect 65 0 10 0;
#X connect 65 1 10 1;
#X connect 66 0 87 0;
#X connect 67 0 44 0;
#X connect 72 0 78 0;
#X connect 72 0 83 0;
#X connect 74 0 75 0;
#X connect 74 1 75 1;
#X connect 75 0 80 0;
#X connect 78 0 74 1;
#X connect 79 0 48 0;
#X connect 80 0 79 1;
#X connect 80 1 48 0;
#X connect 81 0 79 0;
#X connect 82 0 90 0;
#X connect 83 0 81 0;
#X connect 84 0 79 0;
#X connect 87 0 89 0;
#X connect 87 1 47 0;
#X connect 87 2 88 0;
#X connect 88 0 70 0;
#X connect 89 0 64 0;
#X connect 89 1 56 0;
#X connect 89 2 52 0;
#X connect 89 3 51 0;
#X connect 89 4 50 0;
#X connect 89 5 68 0;
#X connect 89 6 69 0;
#X connect 89 7 46 0;
#X connect 90 0 81 0;
#X connect 90 1 81 1;
#X connect 91 0 83 0;
#X connect 91 0 78 0;
#X connect 92 0 91 0;
#X connect 93 0 94 0;
#X connect 93 1 57 1;
#X connect 94 0 57 1;
#X connect 95 0 99 0;
#X connect 96 0 97 0;
#X connect 96 1 58 1;
#X connect 97 0 58 1;
#X connect 98 0 93 0;
#X connect 99 0 96 0;
#X connect 112 0 115 0;
#X connect 113 0 112 0;
#X connect 113 1 42 0;
#X connect 113 1 114 0;
#X connect 114 0 39 0;
#X connect 115 0 121 0;
#X connect 116 0 61 1;
#X connect 116 0 62 1;
#X connect 117 0 112 1;
#X connect 118 0 113 0;
#X connect 119 0 123 0;
#X connect 121 0 119 0;
#X connect 121 1 122 1;
#X connect 122 0 124 0;
#X connect 123 0 122 0;
#X connect 125 1 74 0;
#X connect 126 0 30 0;
#X connect 126 1 29 1;
#X connect 129 0 3 0;
