#N canvas 255 32 1345 846 10;
#X declare -stdpath iemlib -stdpath cyclone -stdlib zexy;
#X obj 449 201 * 1, f 6;
#X obj 399 223 * 1, f 9;
#X obj 399 201 != 0;
#X msg 586 297 clear;
#X msg 293 393 dump;
#X msg 365 290 0;
#X obj 376 313 + 1;
#X obj 350 313 f 0;
#X obj 350 200 t b f;
#X obj 381 335 pack 0 0 0 0;
#X obj 398 457 list prepend;
#X obj 398 479 list split 3;
#X obj 482 220 r \$0-reset;
#X obj 432 500 -, f 21;
#X obj 432 521 abs;
#X obj 461 563 t f f;
#X obj 398 604 list prepend, f 15;
#X obj 505 309 timer, f 7;
#X obj 398 584 list append;
#X obj 262 510 list split 1;
#X msg 262 533 remove \$1;
#X obj 435 310 timer;
#X obj 461 543 +, f 8;
#X obj 398 625 route 1 0;
#X obj 457 668 unpack f f f, f 47;
#X msg 376 359 const 0;
#X floatatom 736 713 5 0 0 0 - - -;
#X obj 457 709 t f f f;
#X obj 457 752 + 0.1;
#X msg 277 418 normalize;
#X obj 457 773 tabwrite \$0-profile;
#X obj 457 730 tabread \$0-profile;
#X obj 277 440 s \$0-profile;
#X obj 376 381 s \$0-profile;
#X obj 427 272 t f b b b, f 20;
#X obj 423 647 list split 1;
#X obj 262 364 t b b b l b;
#X obj 262 461 s \$0-estimate;
#X obj 22 26 inlet;
#X obj 1034 39 r \$0-estimate;
#X obj 1020 181 bang;
#X obj 1020 202 t b b;
#X obj 1034 62 t b b b b, f 25;
#X obj 993 345 tgl 15 0 empty empty empty 17 7 0 10 -262144 -1 -1 0
1;
#X obj 993 366 sel 0;
#X obj 993 412 list split 1;
#X obj 993 390 list, f 12;
#X obj 1018 658 outlet;
#N canvas 0 50 450 278 (subpatch) 0;
#X array \$0-profile 12 float 0;
#X coords 0 1 11 0 200 140 1 0 0;
#X restore 61 589 graph;
#N canvas 629 302 445 364 midi-voices 0;
#X obj 34 284 outlet;
#X obj 84 284 outlet;
#X obj 134 284 outlet;
#X obj 34 97 pack 0 0 0;
#X obj 34 52 mod 12;
#X text 114 67 no voice stealing:;
#X text 114 77 longer voices are more important.;
#X obj 34 142 midi-note-duration;
#X obj 34 246 unpack 0 0 0;
#X obj 34 75 poly 5 0, f 10;
#X obj 34 118 route 1 2 3 4 5;
#X text 155 117 5 voices...;
#X obj 34 31 unpack, f 10;
#X obj 34 9 inlet;
#X obj 51 162 midi-note-duration;
#X obj 61 182 midi-note-duration;
#X obj 71 202 midi-note-duration;
#X obj 81 222 midi-note-duration;
#X connect 3 0 10 0;
#X connect 4 0 9 0;
#X connect 7 0 8 0;
#X connect 8 0 0 0;
#X connect 8 1 1 0;
#X connect 8 2 2 0;
#X connect 9 0 3 0;
#X connect 9 1 3 1;
#X connect 9 2 3 2;
#X connect 10 0 7 0;
#X connect 10 1 14 0;
#X connect 10 2 15 0;
#X connect 10 3 16 0;
#X connect 10 4 17 0;
#X connect 12 0 4 0;
#X connect 12 1 9 1;
#X connect 13 0 12 0;
#X connect 14 0 8 0;
#X connect 15 0 8 0;
#X connect 16 0 8 0;
#X connect 17 0 8 0;
#X restore 350 155 pd midi-voices;
#X f 17;
#X obj 66 131 s \$0-reset;
#X obj 1018 611 t f f, f 13;
#X obj 1093 658 outlet;
#X obj 134 227 s \$0-velw;
#X obj 106 248 s \$0-durw;
#X obj 78 269 s \$0-timew;
#X obj 476 159 r \$0-velw;
#X obj 482 181 r \$0-durw;
#X obj 568 481 r \$0-timelenght;
#X obj 50 290 s \$0-timelenght;
#X obj 488 583 > \$2;
#X obj 736 692 / \$2;
#X msg 1047 247 \$1-minor;
#X msg 1132 246 \$1-major;
#X obj 1132 223 symbol \$1;
#X obj 1047 224 symbol \$1;
#X obj 1215 146 r \$0-model;
#X obj 23 313 s \$0-model;
#X obj 906 106 tabdump \$0-profile;
#X obj 1020 160 iemlib/once;
#X obj 1041 366 sort;
#X obj 428 431 cyclone/coll;
#C restore;
#X obj 1215 168 cyclone/tosymbol;
#X obj 906 129 list-autorotate;
#X obj 1047 282 key-profiles;
#X obj 1093 636 + 0;
#X obj 906 302 euclideandist, f 24;
#X obj 23 47 list prepend;
#X obj 1041 346 list-add prepend, f 30;
#N canvas 242 183 763 371 int2key 0;
#X obj 16 13 inlet;
#X obj 16 35 select 0 1 2 3 4 5 6 7 8 9 10 11 12 13 14 15 16 17 18
19 20 21 22 23, f 120;
#X msg 16 78 C;
#X msg 46 78 Db;
#X msg 76 78 D;
#X msg 106 78 Eb;
#X msg 136 78 E;
#X msg 166 78 F;
#X msg 196 78 F#;
#X msg 226 78 G;
#X msg 256 78 Ab;
#X msg 286 78 A;
#X msg 316 78 Bb;
#X msg 346 78 B;
#X msg 376 78 Cm;
#X msg 406 78 Dbm;
#X msg 436 78 Dm;
#X msg 466 78 Ebm;
#X msg 496 78 Em;
#X msg 525 77 Fm;
#X msg 556 78 F#m;
#X msg 586 78 Gm;
#X msg 616 78 Abm;
#X msg 646 78 Am;
#X msg 676 78 Bbm;
#X msg 705 77 Bm;
#X obj 16 225 outlet;
#X obj 16 203 cyclone/tosymbol;
#X connect 0 0 1 0;
#X connect 1 0 2 0;
#X connect 1 1 3 0;
#X connect 1 2 4 0;
#X connect 1 3 5 0;
#X connect 1 4 6 0;
#X connect 1 5 7 0;
#X connect 1 6 8 0;
#X connect 1 7 9 0;
#X connect 1 8 10 0;
#X connect 1 9 11 0;
#X connect 1 10 12 0;
#X connect 1 11 13 0;
#X connect 1 12 14 0;
#X connect 1 13 15 0;
#X connect 1 14 16 0;
#X connect 1 15 17 0;
#X connect 1 16 18 0;
#X connect 1 17 19 0;
#X connect 1 18 20 0;
#X connect 1 19 21 0;
#X connect 1 20 22 0;
#X connect 1 21 23 0;
#X connect 1 22 24 0;
#X connect 1 23 25 0;
#X connect 2 0 27 0;
#X connect 3 0 27 0;
#X connect 4 0 27 0;
#X connect 5 0 27 0;
#X connect 6 0 27 0;
#X connect 7 0 27 0;
#X connect 8 0 27 0;
#X connect 9 0 27 0;
#X connect 10 0 27 0;
#X connect 11 0 27 0;
#X connect 12 0 27 0;
#X connect 13 0 27 0;
#X connect 14 0 27 0;
#X connect 15 0 27 0;
#X connect 16 0 27 0;
#X connect 17 0 27 0;
#X connect 18 0 27 0;
#X connect 19 0 27 0;
#X connect 20 0 27 0;
#X connect 21 0 27 0;
#X connect 22 0 27 0;
#X connect 23 0 27 0;
#X connect 24 0 27 0;
#X connect 25 0 27 0;
#X connect 27 0 26 0;
#X restore 1018 635 pd int2key;
#X obj 162 206 s \$0-output;
#X obj 190 186 s \$0-refresh;
#X obj 109 112 s \$0-keynow;
#X text 194 227 N.I.;
#X obj 22 3 declare -stdpath iemlib -stdpath cyclone -stdlib zexy;
#X obj 1078 412 r \$0-output;
#X text 575 686 duration (ms);
#X obj 993 486 swap 0 1;
#X obj 993 510 pack 1 0;
#X text 593 742 We could use these two outlets to weight the profiles
acording to duration and short-term memory!!;
#X text 543 164 we could apply different weights to velocity and/or
duration!, f 33;
#X obj 1038 464 > 0;
#X obj 972 588 f, f 4;
#X obj 993 530 route 1 0;
#X obj 1078 538 metro 500;
#X obj 1109 474 r \$0-refresh;
#X obj 1078 474 == 1;
#X obj 917 530 r \$0-keynow;
#X text 166 249 N.I.;
#X text 148 269 N.I.;
#X obj 23 69 route list bang symbol;
#X obj 109 89 sel estimate;
#X obj 23 150 route profile timelenght timew durw velw output refresh
, f 33;
#X obj 1109 494 t b f;
#X obj 1152 432 f \$3;
#X obj 1152 412 loadbang;
#X obj 568 522 sel 0;
#X msg 568 545 6e+13;
#X obj 757 605 r \$0-timelenght;
#X obj 757 644 sel 0;
#X msg 757 667 6e+13;
#X obj 568 501 abs;
#X obj 757 625 abs;
#X text 62 735 C;
#X text 78 735 C#;
#X text 98 735 D;
#X text 113 735 D#;
#X text 132 735 E;
#X text 148 734 F;
#X text 163 734 F#;
#X text 249 735 B;
#X text 229 735 A#;
#X text 214 735 A;
#X text 194 735 G#;
#X text 180 735 G;
#X connect 0 0 1 1;
#X connect 1 0 34 0;
#X connect 2 0 1 0;
#X connect 3 0 71 0;
#X connect 4 0 71 0;
#X connect 5 0 7 1;
#X connect 6 0 7 1;
#X connect 7 0 6 0;
#X connect 7 0 9 0;
#X connect 8 0 7 0;
#X connect 8 1 9 1;
#X connect 9 0 36 0;
#X connect 10 0 11 0;
#X connect 11 0 18 0;
#X connect 11 1 13 0;
#X connect 12 0 3 0;
#X connect 12 0 5 0;
#X connect 12 0 21 0;
#X connect 13 0 14 0;
#X connect 14 0 22 0;
#X connect 15 0 18 1;
#X connect 15 1 60 0;
#X connect 16 0 23 0;
#X connect 17 0 22 1;
#X connect 18 0 16 0;
#X connect 19 0 20 0;
#X connect 20 0 71 0;
#X connect 21 0 9 3;
#X connect 21 0 13 1;
#X connect 22 0 15 0;
#X connect 23 0 19 0;
#X connect 23 1 35 0;
#X connect 24 0 27 0;
#X connect 24 2 61 0;
#X connect 25 0 33 0;
#X connect 27 0 31 0;
#X connect 27 2 30 1;
#X connect 28 0 30 0;
#X connect 29 0 32 0;
#X connect 31 0 28 0;
#X connect 34 0 9 2;
#X connect 34 1 21 1;
#X connect 34 2 17 0;
#X connect 34 3 17 1;
#X connect 35 1 24 0;
#X connect 36 0 37 0;
#X connect 36 1 29 0;
#X connect 36 2 4 0;
#X connect 36 3 71 0;
#X connect 36 4 25 0;
#X connect 38 0 77 0;
#X connect 39 0 42 0;
#X connect 40 0 41 0;
#X connect 41 0 68 0;
#X connect 41 1 65 0;
#X connect 42 0 68 0;
#X connect 42 1 69 1;
#X connect 42 2 64 0;
#X connect 42 3 78 1;
#X connect 43 0 44 0;
#X connect 44 0 46 0;
#X connect 45 0 87 0;
#X connect 46 0 45 0;
#X connect 49 0 8 0;
#X connect 49 1 2 0;
#X connect 49 2 0 0;
#X connect 51 0 79 0;
#X connect 51 1 75 0;
#X connect 56 0 2 1;
#X connect 57 0 0 1;
#X connect 58 0 111 0;
#X connect 60 0 16 1;
#X connect 61 0 26 0;
#X connect 62 0 74 0;
#X connect 63 0 74 0;
#X connect 64 0 63 0;
#X connect 65 0 62 0;
#X connect 66 0 72 0;
#X connect 68 0 73 0;
#X connect 69 0 40 0;
#X connect 70 1 46 1;
#X connect 71 0 10 0;
#X connect 71 1 10 1;
#X connect 72 0 64 1;
#X connect 72 0 65 1;
#X connect 73 0 76 0;
#X connect 73 1 43 0;
#X connect 73 1 69 0;
#X connect 74 0 76 1;
#X connect 75 0 52 0;
#X connect 76 0 78 0;
#X connect 77 0 100 0;
#X connect 78 0 70 0;
#X connect 79 0 47 0;
#X connect 85 0 91 0;
#X connect 85 0 96 0;
#X connect 87 0 88 0;
#X connect 87 1 88 1;
#X connect 88 0 93 0;
#X connect 91 0 87 1;
#X connect 92 0 51 0;
#X connect 93 0 92 1;
#X connect 93 1 51 0;
#X connect 94 0 92 0;
#X connect 95 0 103 0;
#X connect 96 0 94 0;
#X connect 97 0 92 0;
#X connect 100 0 102 0;
#X connect 100 1 50 0;
#X connect 100 2 101 0;
#X connect 101 0 82 0;
#X connect 102 0 67 0;
#X connect 102 1 59 0;
#X connect 102 2 55 0;
#X connect 102 3 54 0;
#X connect 102 4 53 0;
#X connect 102 5 80 0;
#X connect 102 6 81 0;
#X connect 102 7 49 0;
#X connect 103 0 94 0;
#X connect 103 1 94 1;
#X connect 104 0 96 0;
#X connect 104 0 91 0;
#X connect 105 0 104 0;
#X connect 106 0 107 0;
#X connect 106 1 60 1;
#X connect 107 0 60 1;
#X connect 108 0 112 0;
#X connect 109 0 110 0;
#X connect 109 1 61 1;
#X connect 110 0 61 1;
#X connect 111 0 106 0;
#X connect 112 0 109 0;
