#N canvas 923 217 417 514 10;
#X declare -stdpath iemlib -stdpath cyclone -stdlib zexy;
#X obj 40 235 textfile;
#X msg 184 158 read ./key-profiles.txt \, rewind;
#X obj 40 260 list split 1;
#X obj 58 198 until;
#X obj 73 413 list;
#X obj 40 332 sel 0;
#X obj 131 410 spigot 1;
#X msg 176 376 0;
#X msg 246 378 1;
#X msg 131 433 undefined profile!;
#X obj 126 129 t b a b;
#X obj 126 78 inlet;
#X obj 73 476 outlet;
#X obj 126 104 iemlib/iem_anything \$1;
#X obj 40 310 strcmp;
#X obj 124 261 cyclone/prepend list;
#X obj 15 11 declare -stdpath iemlib -stdpath cyclone -stdlib zexy
;
#X connect 0 0 2 0;
#X connect 0 1 3 1;
#X connect 0 1 6 0;
#X connect 1 0 0 0;
#X connect 2 0 14 0;
#X connect 2 1 4 1;
#X connect 3 0 0 0;
#X connect 4 0 12 0;
#X connect 5 0 4 0;
#X connect 5 0 3 1;
#X connect 5 0 7 0;
#X connect 6 0 9 0;
#X connect 7 0 6 1;
#X connect 8 0 6 1;
#X connect 9 0 12 0;
#X connect 10 0 3 0;
#X connect 10 1 15 0;
#X connect 10 2 8 0;
#X connect 10 2 1 0;
#X connect 11 0 13 0;
#X connect 13 0 10 0;
#X connect 14 0 5 0;
#X connect 15 0 14 1;
