#N canvas 762 349 259 268 10;
#X obj 51 49 unpack;
#X obj 123 168 timer;
#X obj 36 163 f;
#X obj 123 122 t b b;
#X obj 84 70 sel 0;
#X obj 51 27 inlet;
#X obj 36 211 outlet;
#X obj 36 189 pack 0 0 0, f 15;
#X obj 58 121 t f b;
#X connect 0 0 2 1;
#X connect 0 1 4 0;
#X connect 1 0 7 2;
#X connect 2 0 7 0;
#X connect 3 0 2 0;
#X connect 3 1 1 1;
#X connect 4 0 3 0;
#X connect 4 1 7 1;
#X connect 4 1 8 0;
#X connect 5 0 0 0;
#X connect 7 0 6 0;
#X connect 8 0 7 1;
#X connect 8 1 1 0;
